<svg width="175" height="56" viewBox="0 0 175 56" fill="none"
    xmlns="http://www.w3.org/2000/svg">
    <path d="M50.448 32.448C50.448 32.96 50.544 33.3653 50.736 33.664C50.9493 33.9627 51.1947 34.1867 51.472 34.336C51.7707 34.464 52.08 34.5493 52.4 34.592C52.7413 34.6347 53.04 34.656 53.296 34.656V36C53.04 36 52.72 35.9893 52.336 35.968C51.952 35.9253 51.5573 35.8827 51.152 35.84C50.7467 35.7973 50.352 35.7653 49.968 35.744C49.584 35.7013 49.264 35.68 49.008 35.68C48.752 35.68 48.432 35.7013 48.048 35.744C47.664 35.7653 47.2693 35.7973 46.864 35.84C46.4587 35.8827 46.064 35.9253 45.68 35.968C45.296 35.9893 44.976 36 44.72 36V34.656C44.9973 34.656 45.3067 34.6347 45.648 34.592C45.9893 34.5493 46.2987 34.464 46.576 34.336C46.8533 34.1867 47.088 33.9627 47.28 33.664C47.472 33.3653 47.568 32.96 47.568 32.448V19.776C47.568 18.9867 47.5467 18.336 47.504 17.824C47.4827 17.2907 47.3973 16.8853 47.248 16.608C47.0987 16.3093 46.8853 16.1067 46.608 16C46.3307 15.872 45.9467 15.808 45.456 15.808V14.688C45.9893 14.688 46.448 14.656 46.832 14.592C47.2373 14.528 47.6 14.432 47.92 14.304C48.24 14.176 48.528 14.0267 48.784 13.856C49.0613 13.6853 49.3493 13.504 49.648 13.312H50.448V32.448ZM50.928 9.76C53.3173 9.76 55.344 10.1547 57.008 10.944C58.672 11.7333 60.016 12.8213 61.04 14.208C62.0853 15.5733 62.832 17.1947 63.28 19.072C63.7493 20.928 63.984 22.9333 63.984 25.088C63.984 27.7547 63.664 30.0693 63.024 32.032C62.384 33.9947 61.4453 35.6267 60.208 36.928C58.9707 38.2293 57.456 39.1893 55.664 39.808C53.8933 40.448 51.8773 40.768 49.616 40.768C48.4 40.768 47.216 40.672 46.064 40.48C44.9333 40.288 43.9307 40 43.056 39.616C42.1813 39.232 41.4773 38.752 40.944 38.176C40.4107 37.6213 40.144 36.9813 40.144 36.256C40.144 35.744 40.304 35.4347 40.624 35.328C40.5173 35.264 40.4 35.1253 40.272 34.912C40.144 34.6987 40.0267 34.4427 39.92 34.144C39.8133 33.824 39.7173 33.472 39.632 33.088C39.5467 32.6827 39.504 32.2773 39.504 31.872C39.504 31.552 39.536 31.1893 39.6 30.784C39.6853 30.3573 39.8347 29.952 40.048 29.568C40.2827 29.1627 40.6027 28.8 41.008 28.48C41.4347 28.16 41.9893 27.936 42.672 27.808L42.864 27.968C42.6293 28.5013 42.4693 29.0773 42.384 29.696C42.32 30.2933 42.288 30.8693 42.288 31.424C42.288 32.6187 42.416 33.6427 42.672 34.496C42.9493 35.3493 43.3013 36.064 43.728 36.64C44.1547 37.216 44.6347 37.6747 45.168 38.016C45.7227 38.3573 46.2773 38.6133 46.832 38.784C47.408 38.976 47.9627 39.0933 48.496 39.136C49.0507 39.2 49.5307 39.232 49.936 39.232C51.856 39.232 53.488 38.912 54.832 38.272C56.1973 37.6533 57.3067 36.7467 58.16 35.552C59.0133 34.336 59.632 32.8533 60.016 31.104C60.4213 29.3547 60.624 27.36 60.624 25.12C60.624 23.3493 60.4533 21.632 60.112 19.968C59.7707 18.304 59.2053 16.832 58.416 15.552C57.6267 14.272 56.5813 13.248 55.28 12.48C54 11.6907 52.4213 11.296 50.544 11.296C48.944 11.296 47.632 11.5413 46.608 12.032C45.584 12.5013 44.7627 13.1413 44.144 13.952C43.5467 14.7413 43.1307 15.648 42.896 16.672C42.6613 17.6747 42.544 18.72 42.544 19.808C41.5413 19.808 40.8267 19.584 40.4 19.136C39.9733 18.6667 39.76 18.1013 39.76 17.44C39.76 16.8213 39.9093 16.3093 40.208 15.904C40.528 15.4773 40.8907 15.264 41.296 15.264C41.1253 15.0933 41.0187 14.8693 40.976 14.592C40.9333 14.2933 40.912 14.0587 40.912 13.888C40.912 13.1627 41.2107 12.544 41.808 12.032C42.4267 11.4987 43.216 11.072 44.176 10.752C45.1573 10.4107 46.2347 10.1653 47.408 10.016C48.6027 9.84533 49.776 9.76 50.928 9.76ZM74.6103 35.008C74.9303 35.008 75.2503 34.976 75.5703 34.912C75.8903 34.8267 76.1889 34.688 76.4663 34.496C76.7649 34.2827 77.0316 33.9947 77.2663 33.632C77.5223 33.248 77.7463 32.7467 77.9383 32.128C78.4289 32.128 78.8343 32.2453 79.1543 32.48C79.4743 32.7147 79.6343 33.0773 79.6343 33.568C79.6343 34.016 79.4849 34.4213 79.1863 34.784C78.9089 35.1467 78.5249 35.456 78.0343 35.712C77.5649 35.9467 77.0103 36.128 76.3703 36.256C75.7516 36.384 75.1009 36.448 74.4183 36.448C73.2449 36.448 72.2103 36.2667 71.3143 35.904C70.4183 35.52 69.6716 34.9973 69.0743 34.336C68.4769 33.6533 68.0183 32.832 67.6983 31.872C67.3996 30.912 67.2503 29.856 67.2503 28.704C67.2503 26.3147 67.8796 24.4373 69.1383 23.072C70.3969 21.7067 72.1889 21.024 74.5143 21.024C74.7916 21.024 75.0689 21.0347 75.3463 21.056C75.6236 21.0773 75.8796 21.1307 76.1143 21.216C76.3489 21.28 76.5409 21.3867 76.6903 21.536C76.8396 21.664 76.9143 21.8347 76.9143 22.048C77.2343 22.048 77.5543 22.112 77.8743 22.24C78.2156 22.368 78.5249 22.56 78.8023 22.816C79.1009 23.072 79.3356 23.4027 79.5063 23.808C79.6983 24.192 79.7943 24.6613 79.7943 25.216C79.7943 26.0053 79.6023 26.656 79.2183 27.168C78.8343 27.68 78.3436 28.096 77.7463 28.416C77.1703 28.7147 76.5303 28.928 75.8263 29.056C75.1436 29.1627 74.4929 29.216 73.8743 29.216C73.1703 29.216 72.5089 29.1627 71.8903 29.056C71.2929 28.9493 70.7809 28.8213 70.3543 28.672V28.8C70.3543 29.696 70.4289 30.528 70.5783 31.296C70.7276 32.064 70.9623 32.7253 71.2823 33.28C71.6236 33.8133 72.0609 34.24 72.5943 34.56C73.1489 34.8587 73.8209 35.008 74.6103 35.008ZM74.2583 22.528C73.1063 22.528 72.2209 22.944 71.6023 23.776C70.9836 24.608 70.5889 25.76 70.4183 27.232C70.7809 27.4667 71.2716 27.6267 71.8903 27.712C72.5303 27.776 73.1383 27.808 73.7143 27.808C74.8663 27.808 75.6663 27.6267 76.1143 27.264C76.5836 26.9013 76.8183 26.272 76.8183 25.376C76.8183 24.3093 76.5729 23.5733 76.0823 23.168C75.5916 22.7413 74.9836 22.528 74.2583 22.528ZM89.893 21.024C90.1063 21.024 90.3517 21.0347 90.629 21.056C90.9277 21.056 91.205 21.088 91.461 21.152C91.7383 21.216 91.973 21.3227 92.165 21.472C92.357 21.6 92.453 21.792 92.453 22.048C93.1997 22.048 93.7757 22.2187 94.181 22.56C94.6077 22.88 94.821 23.4133 94.821 24.16C94.821 24.5867 94.7463 24.96 94.597 25.28C94.4477 25.5787 94.2557 25.824 94.021 26.016C93.7863 26.208 93.5197 26.3573 93.221 26.464C92.9223 26.5493 92.6237 26.592 92.325 26.592C92.197 26.592 92.037 26.592 91.845 26.592C91.6743 26.5707 91.525 26.5387 91.397 26.496V26.368C91.6957 26.2613 91.9303 26.08 92.101 25.824C92.2717 25.5467 92.357 25.1733 92.357 24.704C92.357 24.064 92.1543 23.5413 91.749 23.136C91.365 22.7307 90.725 22.528 89.829 22.528C88.3783 22.528 87.301 23.0933 86.597 24.224C85.9143 25.3333 85.573 26.848 85.573 28.768C85.573 30.7947 85.9357 32.3413 86.661 33.408C87.4077 34.4533 88.485 34.976 89.893 34.976C90.917 34.976 91.6957 34.7093 92.229 34.176C92.7837 33.6213 93.1463 32.832 93.317 31.808H93.445C93.7223 31.9147 93.9997 32.0853 94.277 32.32C94.5543 32.5333 94.693 32.8853 94.693 33.376C94.693 34.2507 94.2237 34.9867 93.285 35.584C92.3677 36.16 91.1517 36.448 89.637 36.448C88.613 36.448 87.6637 36.2987 86.789 36C85.9143 35.68 85.157 35.2107 84.517 34.592C83.877 33.9733 83.3757 33.184 83.013 32.224C82.6503 31.264 82.469 30.144 82.469 28.864C82.469 27.5627 82.661 26.4213 83.045 25.44C83.429 24.4587 83.9517 23.6373 84.613 22.976C85.2743 22.3147 86.053 21.824 86.949 21.504C87.8663 21.184 88.8477 21.024 89.893 21.024ZM104.801 36.448C103.734 36.448 102.742 36.2667 101.825 35.904C100.929 35.52 100.139 34.9867 99.4568 34.304C98.7741 33.6213 98.2408 32.8 97.8568 31.84C97.4728 30.88 97.2808 29.8027 97.2808 28.608C97.2808 27.392 97.4728 26.3147 97.8568 25.376C98.2408 24.4373 98.7741 23.648 99.4568 23.008C100.139 22.3467 100.929 21.856 101.825 21.536C102.742 21.1947 103.734 21.024 104.801 21.024C105.846 21.024 106.827 21.1947 107.745 21.536C108.662 21.856 109.462 22.3467 110.145 23.008C110.827 23.648 111.361 24.4373 111.745 25.376C112.129 26.3147 112.321 27.392 112.321 28.608C112.321 29.824 112.129 30.912 111.745 31.872C111.361 32.832 110.827 33.6533 110.145 34.336C109.462 35.0187 108.662 35.5413 107.745 35.904C106.827 36.2667 105.846 36.448 104.801 36.448ZM104.833 34.976C105.622 34.976 106.294 34.8053 106.849 34.464C107.403 34.1227 107.862 33.664 108.225 33.088C108.587 32.4907 108.854 31.808 109.025 31.04C109.195 30.272 109.281 29.4613 109.281 28.608C109.281 27.776 109.195 26.9867 109.025 26.24C108.854 25.4933 108.587 24.8533 108.225 24.32C107.862 23.7653 107.393 23.328 106.817 23.008C106.262 22.688 105.59 22.528 104.801 22.528C104.011 22.528 103.329 22.688 102.753 23.008C102.198 23.3067 101.739 23.7333 101.377 24.288C101.014 24.8213 100.747 25.4613 100.577 26.208C100.406 26.9547 100.321 27.7547 100.321 28.608C100.321 29.4613 100.406 30.272 100.577 31.04C100.747 31.808 101.014 32.4907 101.377 33.088C101.761 33.664 102.23 34.1227 102.785 34.464C103.361 34.8053 104.043 34.976 104.833 34.976ZM129.369 32.128C129.369 34.0907 129.561 35.5733 129.945 36.576C130.329 37.6 131.118 38.112 132.313 38.112C132.462 38.112 132.633 38.1013 132.825 38.08C133.038 38.0587 133.198 38.0267 133.305 37.984L133.401 38.144C133.124 38.592 132.74 38.8907 132.249 39.04C131.78 39.1893 131.332 39.264 130.905 39.264C130.073 39.264 129.422 39.0827 128.953 38.72C128.505 38.3573 128.281 37.9093 128.281 37.376C127.662 37.376 127.225 37.152 126.969 36.704C126.713 36.256 126.564 35.584 126.521 34.688C125.796 35.392 125.038 35.8613 124.249 36.096C123.481 36.3307 122.734 36.448 122.009 36.448C120.857 36.448 119.844 36.256 118.969 35.872C118.094 35.488 117.358 34.9547 116.761 34.272C116.164 33.568 115.716 32.736 115.417 31.776C115.118 30.816 114.969 29.76 114.969 28.608C114.969 27.264 115.172 26.1227 115.577 25.184C116.004 24.224 116.548 23.4347 117.209 22.816C117.892 22.1973 118.66 21.7493 119.513 21.472C120.388 21.1733 121.273 21.024 122.169 21.024C123.065 21.024 123.854 21.1627 124.537 21.44C125.22 21.7173 125.87 22.208 126.489 22.912V16.416C126.489 15.6267 126.468 14.976 126.425 14.464C126.404 13.9307 126.318 13.5253 126.169 13.248C126.02 12.9493 125.806 12.7467 125.529 12.64C125.252 12.512 124.868 12.448 124.377 12.448V11.488C124.91 11.488 125.358 11.456 125.721 11.392C126.105 11.328 126.446 11.232 126.745 11.104C127.044 10.976 127.321 10.8267 127.577 10.656C127.833 10.4853 128.11 10.304 128.409 10.112H129.369V32.128ZM122.169 34.976C122.894 34.976 123.534 34.816 124.089 34.496C124.644 34.1547 125.092 33.696 125.433 33.12C125.796 32.544 126.062 31.8827 126.233 31.136C126.425 30.368 126.521 29.5467 126.521 28.672C126.521 27.84 126.436 27.0613 126.265 26.336C126.094 25.5893 125.828 24.9387 125.465 24.384C125.102 23.808 124.644 23.36 124.089 23.04C123.556 22.72 122.905 22.56 122.137 22.56C121.369 22.56 120.718 22.72 120.185 23.04C119.652 23.3387 119.225 23.7653 118.905 24.32C118.585 24.8533 118.35 25.4933 118.201 26.24C118.073 26.9653 118.009 27.7547 118.009 28.608C118.009 29.44 118.073 30.24 118.201 31.008C118.329 31.776 118.553 32.4587 118.873 33.056C119.193 33.632 119.62 34.1013 120.153 34.464C120.686 34.8053 121.358 34.976 122.169 34.976ZM140.61 35.008C140.93 35.008 141.25 34.976 141.57 34.912C141.89 34.8267 142.189 34.688 142.466 34.496C142.765 34.2827 143.032 33.9947 143.266 33.632C143.522 33.248 143.746 32.7467 143.938 32.128C144.429 32.128 144.834 32.2453 145.154 32.48C145.474 32.7147 145.634 33.0773 145.634 33.568C145.634 34.016 145.485 34.4213 145.186 34.784C144.909 35.1467 144.525 35.456 144.034 35.712C143.565 35.9467 143.01 36.128 142.37 36.256C141.752 36.384 141.101 36.448 140.418 36.448C139.245 36.448 138.21 36.2667 137.314 35.904C136.418 35.52 135.672 34.9973 135.074 34.336C134.477 33.6533 134.018 32.832 133.698 31.872C133.4 30.912 133.25 29.856 133.25 28.704C133.25 26.3147 133.88 24.4373 135.138 23.072C136.397 21.7067 138.189 21.024 140.514 21.024C140.792 21.024 141.069 21.0347 141.346 21.056C141.624 21.0773 141.88 21.1307 142.114 21.216C142.349 21.28 142.541 21.3867 142.69 21.536C142.84 21.664 142.914 21.8347 142.914 22.048C143.234 22.048 143.554 22.112 143.874 22.24C144.216 22.368 144.525 22.56 144.802 22.816C145.101 23.072 145.336 23.4027 145.506 23.808C145.698 24.192 145.794 24.6613 145.794 25.216C145.794 26.0053 145.602 26.656 145.218 27.168C144.834 27.68 144.344 28.096 143.746 28.416C143.17 28.7147 142.53 28.928 141.826 29.056C141.144 29.1627 140.493 29.216 139.874 29.216C139.17 29.216 138.509 29.1627 137.89 29.056C137.293 28.9493 136.781 28.8213 136.354 28.672V28.8C136.354 29.696 136.429 30.528 136.578 31.296C136.728 32.064 136.962 32.7253 137.282 33.28C137.624 33.8133 138.061 34.24 138.594 34.56C139.149 34.8587 139.821 35.008 140.61 35.008ZM140.258 22.528C139.106 22.528 138.221 22.944 137.602 23.776C136.984 24.608 136.589 25.76 136.418 27.232C136.781 27.4667 137.272 27.6267 137.89 27.712C138.53 27.776 139.138 27.808 139.714 27.808C140.866 27.808 141.666 27.6267 142.114 27.264C142.584 26.9013 142.818 26.272 142.818 25.376C142.818 24.3093 142.573 23.5733 142.082 23.168C141.592 22.7413 140.984 22.528 140.258 22.528ZM153.237 32.832C153.237 33.2587 153.301 33.6107 153.429 33.888C153.578 34.1653 153.749 34.3893 153.941 34.56C154.154 34.7307 154.389 34.8587 154.645 34.944C154.922 35.008 155.189 35.04 155.445 35.04V36C155.189 36 154.901 35.9893 154.581 35.968C154.282 35.9253 153.962 35.8827 153.621 35.84C153.28 35.7973 152.949 35.7653 152.629 35.744C152.33 35.7013 152.053 35.68 151.797 35.68C151.541 35.68 151.253 35.7013 150.933 35.744C150.634 35.7653 150.314 35.7973 149.973 35.84C149.632 35.8827 149.301 35.9253 148.981 35.968C148.682 35.9893 148.405 36 148.149 36V35.04C148.725 35.04 149.237 34.88 149.685 34.56C150.133 34.24 150.357 33.664 150.357 32.832V27.488C150.357 26.6987 150.336 26.048 150.293 25.536C150.272 25.0027 150.186 24.5973 150.037 24.32C149.888 24.0213 149.674 23.8187 149.397 23.712C149.12 23.584 148.736 23.52 148.245 23.52V22.72C148.778 22.72 149.237 22.688 149.621 22.624C150.026 22.56 150.389 22.464 150.709 22.336C151.029 22.208 151.317 22.0587 151.573 21.888C151.85 21.7173 152.138 21.536 152.437 21.344H153.237V24.672C153.749 23.4133 154.357 22.496 155.061 21.92C155.786 21.3227 156.522 21.024 157.269 21.024C157.738 21.024 158.165 21.0987 158.549 21.248C158.933 21.3973 159.125 21.6533 159.125 22.016C159.552 22.016 159.882 22.1547 160.117 22.432C160.373 22.7093 160.501 23.0933 160.501 23.584C160.501 24.1387 160.309 24.6293 159.925 25.056C159.541 25.4613 158.901 25.7493 158.005 25.92C158.09 25.6 158.133 25.28 158.133 24.96C158.133 24.192 157.952 23.6267 157.589 23.264C157.248 22.9013 156.864 22.72 156.437 22.72C156.096 22.72 155.733 22.9013 155.349 23.264C154.986 23.6053 154.645 24.0853 154.325 24.704C154.005 25.3227 153.738 26.048 153.525 26.88C153.333 27.6907 153.237 28.576 153.237 29.536V32.832ZM172.815 24C172.815 24.8107 172.537 25.408 171.983 25.792C171.449 26.1547 170.841 26.336 170.159 26.336L170.063 26.176C170.212 26.112 170.372 25.952 170.543 25.696C170.713 25.44 170.799 25.0987 170.799 24.672C170.799 23.9467 170.532 23.4133 169.999 23.072C169.465 22.7093 168.761 22.528 167.887 22.528C167.673 22.528 167.417 22.5493 167.119 22.592C166.82 22.6347 166.532 22.7307 166.255 22.88C165.977 23.0293 165.732 23.2427 165.519 23.52C165.327 23.7973 165.231 24.16 165.231 24.608C165.231 25.2053 165.433 25.6747 165.839 26.016C166.244 26.3573 166.745 26.6453 167.343 26.88C167.961 27.1147 168.623 27.3387 169.327 27.552C170.031 27.7653 170.681 28.0427 171.279 28.384C171.897 28.7253 172.409 29.1733 172.815 29.728C173.22 30.2827 173.423 31.0187 173.423 31.936C173.423 33.4293 172.857 34.56 171.727 35.328C170.617 36.0747 169.145 36.448 167.311 36.448C167.183 36.448 166.98 36.4373 166.703 36.416C166.425 36.416 166.148 36.3947 165.871 36.352C165.615 36.3093 165.38 36.2453 165.167 36.16C164.953 36.0747 164.847 35.9467 164.847 35.776C163.951 35.776 163.279 35.5413 162.831 35.072C162.383 34.6027 162.159 34.0053 162.159 33.28C162.159 32.4907 162.383 31.9253 162.831 31.584C163.3 31.2427 163.833 31.0507 164.431 31.008L164.495 31.104C164.324 31.296 164.217 31.552 164.175 31.872C164.132 32.1707 164.111 32.4053 164.111 32.576C164.111 33.0453 164.217 33.44 164.431 33.76C164.644 34.0587 164.911 34.304 165.231 34.496C165.551 34.6667 165.903 34.7947 166.287 34.88C166.692 34.944 167.087 34.976 167.471 34.976C167.556 34.976 167.748 34.9653 168.047 34.944C168.367 34.9227 168.687 34.848 169.007 34.72C169.327 34.5707 169.615 34.3467 169.871 34.048C170.127 33.728 170.255 33.2907 170.255 32.736C170.255 32.0747 170.063 31.552 169.679 31.168C169.295 30.784 168.804 30.464 168.207 30.208C167.631 29.952 167.001 29.7173 166.319 29.504C165.636 29.2693 164.996 28.992 164.399 28.672C163.823 28.352 163.343 27.936 162.959 27.424C162.575 26.8907 162.383 26.1867 162.383 25.312C162.383 24.4373 162.575 23.7227 162.959 23.168C163.343 22.6133 163.823 22.176 164.399 21.856C164.975 21.536 165.583 21.3227 166.223 21.216C166.884 21.088 167.481 21.024 168.015 21.024C168.697 21.024 169.22 21.088 169.583 21.216C169.945 21.344 170.127 21.5253 170.127 21.76C170.447 21.76 170.767 21.8027 171.087 21.888C171.407 21.952 171.695 22.0693 171.951 22.24C172.207 22.4107 172.409 22.6453 172.559 22.944C172.729 23.2213 172.815 23.5733 172.815 24Z" fill="blue"/>
    <path stroke="black" stroke-width="3" stroke-linecap="round"/>
</svg>
