<svg width="80" height="79" viewBox="0 0 80 79" fill="none" xmlns="http://www.w3.org/2000/svg">
<path d="M22 53.7V37.2333C22 35.4239 22.3609 33.6865 23.0242 32.0723M58 44.825V42.3947M30 24.3573C32.8601 22.7105 36.2996 21.75 40 21.75C48.2062 21.75 55.1297 26.4737 57.2966 32.9325" stroke="#A5D0A8" stroke-width="7.32374" stroke-linecap="round" stroke-linejoin="round"/>
<path d="M32.7998 57.25V49.5234M47.1998 57.25V38.9778C47.1998 35.3451 43.9764 32.4 39.9998 32.4C36.0232 32.4 32.7998 35.3451 32.7998 38.9778V41.7972" stroke="#A5D0A8" stroke-width="7.32374" stroke-linecap="round" stroke-linejoin="round"/>
<path d="M47.2 74.29C44.8737 74.7554 42.4656 75 40 75C20.1177 75 4 59.1059 4 39.5C4 19.8939 20.1177 4 40 4C59.8821 4 76 19.8939 76 39.5C76 40.4017 75.9658 41.2952 75.8988 42.1799" stroke="#A5D0A8" stroke-width="7.32374" stroke-linecap="round" stroke-linejoin="round"/>
<path d="M73.0001 62.575H73.84C75.033 62.575 76 63.5286 76 64.705V72.87C76 74.0465 75.033 75 73.84 75H60.16C58.967 75 58 74.0465 58 72.87V64.705C58 63.5286 58.967 62.575 60.16 62.575H60.9999M73.0001 62.575V56.3625C73.0001 54.2918 71.7999 50.15 67 50.15C62.2001 50.15 60.9999 54.2918 60.9999 56.3625V62.575M73.0001 62.575H60.9999" stroke="#A5D0A8" stroke-width="7.32374" stroke-linecap="round" stroke-linejoin="round"/>
</svg>
